<svg id="Layer_1" data-name="Layer 1" xmlns="http://www.w3.org/2000/svg" viewBox="0 0 551.15 271.86"><defs><style>.cls-1{fill:#fff;}</style></defs><title>title-text</title><path class="cls-1" d="M.56.91h11c4.52,0,8,1.16,10.44,3.47s3.65,5.74,3.65,10.27q0,11.72-8.56,13.42v.31a11.48,11.48,0,0,1,7.34,4.41c1.6,2.25,2.41,5.38,2.41,9.41q0,7.74-3.44,12.08a11.56,11.56,0,0,1-9.63,4.34H.56Zm3.86,25.7h7.27c3.6,0,6.18-1,7.72-3s2.31-5,2.31-9.06q0-4.9-2.55-7.5T11.61,4.46H4.42Zm0,3.55V55.07h8.89q9.54,0,9.55-13,0-5.76-2.8-8.86a10,10,0,0,0-7.86-3.1Z"/><path class="cls-1" d="M69.81.91v39q0,19.55-14,19.54-7,0-10.66-5T41.51,39.87V.91h3.91V40.35q0,7.5,2.7,11.42a8.81,8.81,0,0,0,7.72,3.93,8.44,8.44,0,0,0,7.54-3.93c1.71-2.61,2.56-6.48,2.56-11.58V.91Z"/><path class="cls-1" d="M87.63,58.62V.91H91.5V58.62Z"/><path class="cls-1" d="M109.79,58.62V.91h3.87v54h16.27v3.71Z"/><path class="cls-1" d="M172.14,29.21q0,29.42-18.36,29.41H143.52V.91H154q8.92,0,13.52,7.2T172.14,29.21Zm-4.07.24q0-12.19-3.59-18.59t-10.62-6.4h-6.47V55.07h6.16a11.65,11.65,0,0,0,11-6.55Q168.07,42,168.07,29.45Z"/><path class="cls-1" d="M188.46,58.62V.91h3.87V58.62Z"/><path class="cls-1" d="M241,58.62h-4.94L214.25,6.87h-.31q.47,5.37.47,10.34V58.62h-3.79V.91h5l21.68,51.16h.23q-.31-6.47-.31-10.82V.91H241Z"/><path class="cls-1" d="M278.3,29.53h12.63V56.85a37.43,37.43,0,0,1-13.7,2.56,16.57,16.57,0,0,1-14.64-7.89q-5.22-7.91-5.21-21.91t5.38-21.79A17.4,17.4,0,0,1,277.9.08a22.59,22.59,0,0,1,12.36,3.71L288.4,7.18a19.62,19.62,0,0,0-10.5-3.47,13.55,13.55,0,0,0-12.25,6.65q-4.17,6.66-4.17,19.33,0,12.39,4.21,19.2a13.25,13.25,0,0,0,11.9,6.81A26.85,26.85,0,0,0,287,54.24v-21H278.3Z"/><path class="cls-1" d="M328.27.91h11.05q6.8,0,10.44,3.47t3.65,10.27q0,11.72-8.56,13.42v.31a11.48,11.48,0,0,1,7.34,4.41c1.6,2.25,2.41,5.38,2.41,9.41q0,7.74-3.44,12.08a11.56,11.56,0,0,1-9.63,4.34H328.27Zm3.87,25.7h7.26c3.6,0,6.18-1,7.72-3s2.31-5,2.31-9.06q0-4.9-2.55-7.5t-7.56-2.61h-7.18Zm0,3.55V55.07H341q9.56,0,9.55-13,0-5.76-2.8-8.86a10,10,0,0,0-7.86-3.1Z"/><path class="cls-1" d="M369.73,58.62V.91h3.87v54h16.27v3.71Z"/><path class="cls-1" d="M434.8,29.69q0,14.33-4.28,22t-12.38,7.69q-8.16,0-12.39-7.75t-4.23-22q0-14.92,4.19-22.23A13.57,13.57,0,0,1,418.26.08q8.06,0,12.3,7.68T434.8,29.69Zm-29.25,0q0,12.87,3.22,19.44t9.37,6.57c4.14,0,7.27-2.17,9.42-6.51s3.22-10.84,3.22-19.5-1.06-15-3.16-19.37-5.23-6.53-9.36-6.53-7.41,2.2-9.53,6.61S405.55,21.24,405.55,29.69Z"/><path class="cls-1" d="M467.47,3.71q-6.53,0-10.37,6.89t-3.85,19.09A48.09,48.09,0,0,0,455,43.5a20.29,20.29,0,0,0,5.09,9,10.81,10.81,0,0,0,7.7,3.16,17.13,17.13,0,0,0,7.74-1.62v3.56a16.14,16.14,0,0,1-8.09,1.77,14.28,14.28,0,0,1-9.62-3.55,22.73,22.73,0,0,1-6.37-10.28,50.55,50.55,0,0,1-2.25-16q0-13.82,4.91-21.72T467.54,0a17.18,17.18,0,0,1,9.24,2.45L475,5.84A13.66,13.66,0,0,0,467.47,3.71Z"/><path class="cls-1" d="M517,58.62h-4.35L499.1,29.84l-4.46,5.89V58.62h-3.87V.91h3.87V31.46q2-3.78,17.06-30.55h4.22L501.43,26.29Z"/><path class="cls-1" d="M551.15,43.5q0,7.11-3.95,11.51a12.85,12.85,0,0,1-10,4.4q-6.9,0-11.09-2V53.22A19.08,19.08,0,0,0,531.17,55a27.66,27.66,0,0,0,6,.67,9.13,9.13,0,0,0,7.27-3.35,12.77,12.77,0,0,0,2.84-8.53,12.78,12.78,0,0,0-2-7.58q-2-2.81-7.7-5.61a27.9,27.9,0,0,1-6.67-4.36,13.14,13.14,0,0,1-3.28-4.91,18.93,18.93,0,0,1-1.07-6.71,16,16,0,0,1,1.74-7.58,12.73,12.73,0,0,1,4.86-5.16A13.21,13.21,0,0,1,540,.08a23.16,23.16,0,0,1,6.1.75,20.57,20.57,0,0,1,4.32,1.62l-1.5,3.71A19.34,19.34,0,0,0,540,3.91a9,9,0,0,0-6.93,2.9,10.88,10.88,0,0,0-2.67,7.68q0,4.86,1.94,7.54t7.58,5.56a22,22,0,0,1,8.54,6.66A15.51,15.51,0,0,1,551.15,43.5Z"/><path class="cls-1" d="M21.46,183.15H.37V68.93H51.54V87.29H21.46V119H49.51v18.36h-28Z"/><path class="cls-1" d="M144.43,125.88q0,28.37-10.63,43.6t-30.39,15.23q-19.84,0-30.47-15.19T62.32,125.73q0-28.37,10.62-43.48t30.63-15.12q19.77,0,30.31,15.2T144.43,125.88Zm-60.39,0q0,19.55,4.92,29.77t14.45,10.23q19.23,0,19.22-40t-19.06-40q-9.69,0-14.61,10.2T84,125.88Z"/><path class="cls-1" d="M182.32,138.7v44.45H161.07V68.93h27.81q17.66,0,26.06,8.36t8.4,25.55q0,21.63-14.61,30.23l22,50.08H207.94l-18-44.45Zm0-18.28h5.47q7.5,0,10.78-4.26t3.28-12.7q0-8.74-3.48-12.46t-10.74-3.71h-5.31Z"/><path class="cls-1" d="M351.77,183.15H329.12l-18.75-48.83-8.52,8.52v40.31H280.6V68.93h21.25v56.64l7.42-17.11,19.46-39.53h22.73l-26.41,49.45Z"/><path class="cls-1" d="M365.68,183.15V68.93h20V183.15Z"/><path class="cls-1" d="M482.48,125q0,28.28-11.53,43.24t-33.16,15h-28V68.93h30.55q19.92,0,31,14.73T482.48,125Zm-21.8.62q0-38.28-21.09-38.28h-8.52v77.27h6.87q11.64,0,17.19-9.73T460.68,125.57Z"/><path class="cls-1" d="M551.15,151.67q0,16-8.09,24.53t-23.32,8.51q-14.92,0-25.39-5.86v-21q12.81,8.35,23.52,8.36,6.09,0,9.18-3.36t3.08-9.14a16.6,16.6,0,0,0-3.67-10.43q-3.68-4.72-12.11-10.51A53.75,53.75,0,0,1,503.22,123a35,35,0,0,1-5.86-10.43,39.77,39.77,0,0,1-2.07-13.43q0-14.7,8.16-23.29t21.92-8.59a48,48,0,0,1,25.23,7.34l-7,17a67.53,67.53,0,0,0-7.85-3.91A22.48,22.48,0,0,0,526.93,86a9.64,9.64,0,0,0-7.93,3.4q-2.78,3.39-2.77,9.26a16,16,0,0,0,3.32,10.07q3.32,4.31,11.6,9.77,11.18,7.5,15.58,15.31A35.53,35.53,0,0,1,551.15,151.67Z"/><path class="cls-1" d="M27.7,232.29H44.43v36.17a49.5,49.5,0,0,1-18.14,3.4A21.94,21.94,0,0,1,6.9,261.41Q0,251,0,232.4t7.13-28.85q7.14-10.25,20.05-10.25a29.9,29.9,0,0,1,16.36,4.91l-2.46,4.5q-7.21-4.61-13.9-4.6-10.71,0-16.23,8.81T5.44,232.5q0,16.41,5.56,25.43t15.76,9A35.74,35.74,0,0,0,39.25,265v-27.8H27.7Z"/><path class="cls-1" d="M107.74,232.5q0,19-5.67,29.17T85.69,271.86q-10.83,0-16.42-10.27T63.68,232.4q0-19.76,5.54-29.43t16.62-9.67q10.66,0,16.28,10.17T107.74,232.5ZM69,232.5q0,17,4.26,25.74T85.69,267q8.2,0,12.46-8.63t4.26-25.82q0-17-4.18-25.64t-12.39-8.65q-8.41,0-12.62,8.76T69,232.5Z"/><path class="cls-1" d="M129.4,270.81V194.4h5.12v71.5h21.54v4.91Z"/><path class="cls-1" d="M179.18,270.81h-5.12V194.4h27.8v4.91H179.18v32.41h21.43v5H179.18Z"/><path class="cls-1" d="M288.77,232.5q0,19-5.67,29.17t-16.39,10.19q-10.81,0-16.41-10.27t-5.59-29.19q0-19.76,5.54-29.43t16.62-9.67q10.67,0,16.28,10.17T288.77,232.5Zm-38.73,0q0,17,4.26,25.74T266.71,267q8.21,0,12.47-8.63t4.26-25.82q0-17-4.18-25.64t-12.39-8.65q-8.42,0-12.62,8.76T250,232.5Z"/><path class="cls-1" d="M347.23,194.4V246q0,25.88-18.51,25.87-9.24,0-14.11-6.69T309.75,246V194.4h5.17v52.21q0,9.94,3.58,15.14a11.69,11.69,0,0,0,10.22,5.2,11.2,11.2,0,0,0,10-5.2q3.39-5.21,3.39-15.34v-52Z"/><path class="cls-1" d="M383.52,270.81H378.4v-71.5H363.19V194.4h35.54v4.91H383.52Z"/><path class="cls-1" d="M415.47,270.81V194.4h5.13v76.41Z"/><path class="cls-1" d="M485.06,270.81h-6.53l-28.91-68.52h-.42q.63,7.11.63,13.69v54.83h-5V194.4h6.64l28.7,67.74h.31q-.42-8.58-.42-14.32V194.4h5Z"/><path class="cls-1" d="M534.42,232.29h16.73v36.17a49.5,49.5,0,0,1-18.14,3.4,21.94,21.94,0,0,1-19.39-10.45q-6.9-10.46-6.9-29t7.13-28.85q7.14-10.25,20-10.25a29.9,29.9,0,0,1,16.36,4.91l-2.46,4.5q-7.21-4.61-13.9-4.6-10.71,0-16.23,8.81t-5.51,25.58q0,16.41,5.56,25.43t15.76,9A35.74,35.74,0,0,0,546,265v-27.8H534.42Z"/></svg>